<svg width="74" height="77" viewBox="0 0 74 77" fill="none" xmlns="http://www.w3.org/2000/svg">
    <path d="M41.2368 18.9818L41.2368 19.4818L41.2368 18.9818ZM46.2345 23.8319L46.7343 23.8169L46.2345 23.8319ZM46.6097 36.3386L47.1096 36.3452L47.1098 36.3344L47.1095 36.3236L46.6097 36.3386ZM45.7308 76.3489C45.9235 76.5467 46.24 76.5508 46.4378 76.3582L49.6613 73.2182C49.8591 73.0255 49.8633 72.709 49.6706 72.5112C49.4779 72.3134 49.1613 72.3092 48.9635 72.5019L46.0982 75.2929L43.3072 72.4276C43.1145 72.2298 42.7979 72.2257 42.6001 72.4184C42.4023 72.611 42.3982 72.9276 42.5908 73.1254L45.7308 76.3489ZM7.77496 19.4816L41.2368 19.4818L41.2368 18.4818L7.77497 18.4816L7.77496 19.4816ZM45.7347 23.8469L46.1099 36.3536L47.1095 36.3236L46.7343 23.8169L45.7347 23.8469ZM46.1097 36.332L45.589 75.9934L46.5889 76.0066L47.1096 36.3452L46.1097 36.332ZM41.2368 19.4818C43.6695 19.4818 45.6618 21.4152 45.7347 23.8469L46.7343 23.8169C46.6451 20.8449 44.2101 18.4818 41.2368 18.4818L41.2368 19.4818Z" fill="black" />
</svg>
    