<svg width="68" height="80" viewBox="0 0 68 80" fill="none" xmlns="http://www.w3.org/2000/svg">
    <path d="M0.666672 58.6667C0.666672 62.3334 2.29167 65.625 4.83334 67.9167V75.3334C4.83334 77.625 6.70834 79.5 9 79.5H13.1667C15.4583 79.5 17.3333 77.625 17.3333 75.3334V71.1667H50.6667V75.3334C50.6667 77.625 52.5417 79.5 54.8333 79.5H59C61.2917 79.5 63.1667 77.625 63.1667 75.3334V67.9167C65.7083 65.625 67.3333 62.3334 67.3333 58.6667V17C67.3333 2.41671 52.4167 0.333374 34 0.333374C15.5833 0.333374 0.666672 2.41671 0.666672 17V58.6667ZM15.25 62.8334C11.7917 62.8334 9 60.0417 9 56.5834C9 53.125 11.7917 50.3334 15.25 50.3334C18.7083 50.3334 21.5 53.125 21.5 56.5834C21.5 60.0417 18.7083 62.8334 15.25 62.8334ZM52.75 62.8334C49.2917 62.8334 46.5 60.0417 46.5 56.5834C46.5 53.125 49.2917 50.3334 52.75 50.3334C56.2083 50.3334 59 53.125 59 56.5834C59 60.0417 56.2083 62.8334 52.75 62.8334ZM59 37.8334H9V17H59V37.8334Z" fill="black" />
</svg>
    