<svg width="84" height="76" viewBox="0 0 84 76" fill="none" xmlns="http://www.w3.org/2000/svg">
    <path d="M33.6667 54.6667V50.5H4.54167L4.5 67.1667C4.5 71.7917 8.20834 75.5 12.8333 75.5H71.1667C75.7917 75.5 79.5 71.7917 79.5 67.1667V50.5H50.3333V54.6667H33.6667ZM75.3333 17.1667H58.625V8.83333L50.2917 0.5H33.625L25.2917 8.83333V17.1667H8.66667C4.08334 17.1667 0.333336 20.9167 0.333336 25.5V38C0.333336 42.625 4.04167 46.3333 8.66667 46.3333H33.6667V38H50.3333V46.3333H75.3333C79.9167 46.3333 83.6667 42.5833 83.6667 38V25.5C83.6667 20.9167 79.9167 17.1667 75.3333 17.1667ZM50.3333 17.1667H33.6667V8.83333H50.3333V17.1667Z" fill="black" />
</svg>
    