<svg width="30" height="31" viewBox="0 0 30 31" fill="none" xmlns="http://www.w3.org/2000/svg">
    <path d="M28.35 21.1248C26.3 21.1248 24.3167 20.7915 22.4667 20.1915C21.8833 19.9915 21.2333 20.1415 20.7833 20.5915L18.1667 23.8748C13.45 21.6248 9.03333 17.3748 6.68333 12.4915L9.93333 9.72479C10.3833 9.25812 10.5167 8.60812 10.3333 8.02479C9.71667 6.17479 9.4 4.19146 9.4 2.14146C9.4 1.24146 8.65 0.491455 7.75 0.491455H1.98333C1.08333 0.491455 0 0.891455 0 2.14146C0 17.6248 12.8833 30.4915 28.35 30.4915C29.5333 30.4915 30 29.4415 30 28.5248V22.7748C30 21.8748 29.25 21.1248 28.35 21.1248Z" fill="#206315" />
</svg>
    