<svg width="74" height="74" viewBox="0 0 74 74" fill="none" xmlns="http://www.w3.org/2000/svg">
    <path d="M52.5833 46.3333H49.2917L48.125 45.2083C52.2083 40.4583 54.6667 34.2917 54.6667 27.5833C54.6667 12.625 42.5417 0.5 27.5833 0.5C12.625 0.5 0.5 12.625 0.5 27.5833C0.5 42.5417 12.625 54.6667 27.5833 54.6667C34.2917 54.6667 40.4583 52.2083 45.2083 48.125L46.3333 49.2917V52.5833L67.1667 73.375L73.375 67.1667L52.5833 46.3333ZM27.5833 46.3333C17.2083 46.3333 8.83333 37.9583 8.83333 27.5833C8.83333 17.2083 17.2083 8.83333 27.5833 8.83333C37.9583 8.83333 46.3333 17.2083 46.3333 27.5833C46.3333 37.9583 37.9583 46.3333 27.5833 46.3333Z" fill="black" />
</svg>
    

    