<svg width="92" height="60" viewBox="0 0 92 60" fill="none" xmlns="http://www.w3.org/2000/svg">
    <path d="M62.6667 25.8334C69.5833 25.8334 75.125 20.25 75.125 13.3334C75.125 6.41671 69.5833 0.833374 62.6667 0.833374C55.75 0.833374 50.1667 6.41671 50.1667 13.3334C50.1667 20.25 55.75 25.8334 62.6667 25.8334ZM29.3333 25.8334C36.25 25.8334 41.7917 20.25 41.7917 13.3334C41.7917 6.41671 36.25 0.833374 29.3333 0.833374C22.4167 0.833374 16.8333 6.41671 16.8333 13.3334C16.8333 20.25 22.4167 25.8334 29.3333 25.8334ZM29.3333 34.1667C19.625 34.1667 0.166664 39.0417 0.166664 48.75V59.1667H58.5V48.75C58.5 39.0417 39.0417 34.1667 29.3333 34.1667ZM62.6667 34.1667C61.4583 34.1667 60.0833 34.25 58.625 34.375C63.4583 37.875 66.8333 42.5834 66.8333 48.75V59.1667H91.8333V48.75C91.8333 39.0417 72.375 34.1667 62.6667 34.1667Z" fill="black" />
</svg>
    